<?xml version="1.0" encoding="iso-8859-1"?>
<!-- Generator: Adobe Illustrator 18.0.0, SVG Export Plug-In . SVG Version: 6.00 Build 0)  -->
<!DOCTYPE svg PUBLIC "-//W3C//DTD SVG 1.1//EN" "http://www.w3.org/Graphics/SVG/1.1/DTD/svg11.dtd">
<svg version="1.1" id="Capa_1" xmlns="http://www.w3.org/2000/svg" xmlns:xlink="http://www.w3.org/1999/xlink" x="0px" y="0px"
	 viewBox="0 0 252 252" style="enable-background:new 0 0 252 252;" xml:space="preserve">
<g>
	<path d="M126,0C56.523,0,0,56.523,0,126s56.523,126,126,126s126-56.523,126-126S195.477,0,126,0z M126,234
		c-59.551,0-108-48.449-108-108S66.449,18,126,18s108,48.449,108,108S185.551,234,126,234z"/>
	<path d="M164.612,87.388c-3.515-3.515-9.213-3.515-12.728,0L126,113.272l-25.885-25.885c-3.515-3.515-9.213-3.515-12.728,0
		c-3.515,3.515-3.515,9.213,0,12.728L113.272,126l-25.885,25.885c-3.515,3.515-3.515,9.213,0,12.728
		c1.757,1.757,4.061,2.636,6.364,2.636s4.606-0.879,6.364-2.636L126,138.728l25.885,25.885c1.757,1.757,4.061,2.636,6.364,2.636
		s4.606-0.879,6.364-2.636c3.515-3.515,3.515-9.213,0-12.728L138.728,126l25.885-25.885
		C168.127,96.601,168.127,90.902,164.612,87.388z"/>
</g>
<g>
</g>
<g>
</g>
<g>
</g>
<g>
</g>
<g>
</g>
<g>
</g>
<g>
</g>
<g>
</g>
<g>
</g>
<g>
</g>
<g>
</g>
<g>
</g>
<g>
</g>
<g>
</g>
<g>
</g>
</svg>
