<?xml version="1.0" encoding="UTF-8"?><!DOCTYPE svg PUBLIC "-//W3C//DTD SVG 1.1//EN" "http://www.w3.org/Graphics/SVG/1.1/DTD/svg11.dtd"><svg xmlns="http://www.w3.org/2000/svg" xmlns:xlink="http://www.w3.org/1999/xlink"><symbol id="arrow-down" viewBox="0 0 491.996 491.996"><path d="m484.132 124.986-16.116-16.228c-5.072-5.068-11.82-7.86-19.032-7.86-7.208 0-13.964 2.792-19.036 7.86l-183.84 183.848L62.056 108.554c-5.064-5.068-11.82-7.856-19.028-7.856s-13.968 2.788-19.036 7.856l-16.12 16.128c-10.496 10.488-10.496 27.572 0 38.06l219.136 219.924c5.064 5.064 11.812 8.632 19.084 8.632h.084c7.212 0 13.96-3.572 19.024-8.632l218.932-219.328c5.072-5.064 7.856-12.016 7.864-19.224 0-7.212-2.792-14.068-7.864-19.128z"/></symbol><symbol id="check"><g style="enable-background:new 0 0 405.272 405.272"><path d="M393.401 124.425 179.603 338.208c-15.832 15.835-41.514 15.835-57.361 0L11.878 227.836c-15.838-15.835-15.838-41.52 0-57.358 15.841-15.841 41.521-15.841 57.355-.006l81.698 81.699L336.037 67.064c15.841-15.841 41.523-15.829 57.358 0 15.835 15.838 15.835 41.514.006 57.361z"/></g></symbol><symbol id="close" viewBox="0 0 47.971 47.971"><g style="enable-background:new 0 0 47.971 47.971"><path d="M28.228 23.986 47.092 5.122a2.998 2.998 0 0 0 0-4.242 2.998 2.998 0 0 0-4.242 0L23.986 19.744 5.121.88a2.998 2.998 0 0 0-4.242 0 2.998 2.998 0 0 0 0 4.242l18.865 18.864L.879 42.85a2.998 2.998 0 1 0 4.242 4.241l18.865-18.864L42.85 47.091c.586.586 1.354.879 2.121.879s1.535-.293 2.121-.879a2.998 2.998 0 0 0 0-4.242L28.228 23.986z"/></g></symbol><symbol id="exclamation"><g style="enable-background:new 0 0 96.574 96.574"><path d="M60.922.605A2.002 2.002 0 0 0 59.488 0H37.086c-.54 0-1.057.219-1.434.605-.378.386-.58.91-.565 1.45l1.68 60.798a1.998 1.998 0 0 0 1.999 1.943h19.046a1.998 1.998 0 0 0 1.999-1.945l1.677-60.796a2.004 2.004 0 0 0-.566-1.45zM57.771 75.034H38.804a2 2 0 0 0-2 2v17.54a2 2 0 0 0 2 2h18.969a2 2 0 0 0 2-2v-17.54a2.002 2.002 0 0 0-2.002-2z"/></g></symbol><symbol id="github" viewBox="0 0 35.318 35.318"><g style="enable-background:new 0 0 35.318 35.318"><path d="M23.71 34.689c-.172.062-.345.137-.522.168-.678.121-1.112-.229-1.116-.922-.009-1.287-.009-2.572.012-3.859.022-1.48-.012-2.941-1.139-4.162.67-.12 1.266-.204 1.849-.338 3.862-.887 5.868-3.323 6.124-7.366.131-2.058-.236-3.946-1.604-5.567-.099-.114-.104-.373-.057-.539.364-1.34.258-2.649-.166-3.959-.105-.327-.279-.428-.602-.407-1.134.063-2.173.461-3.089 1.073-.883.593-1.705.722-2.754.482-2.31-.521-4.635-.369-6.94.165-.261.062-.612-.021-.851-.161-1.082-.634-2.164-1.25-3.412-1.496-.965-.188-1.049-.14-1.305.793-.322 1.176-.354 2.353-.025 3.536.047.172-.002.448-.117.575-2.557 2.853-1.631 8.244.092 10.309 1.34 1.604 3.12 2.326 5.096 2.701.345.064.688.113 1.033.173-.296.77-.562 1.497-.863 2.212-.059.138-.246.254-.399.312-1.938.752-3.604.199-4.713-1.56-.593-.938-1.354-1.639-2.488-1.842-.036-.007-.073-.026-.106-.021-.305.08-.607.164-.911.246.171.238.292.558.521.701.961.608 1.586 1.475 1.999 2.498.649 1.604 1.909 2.319 3.546 2.459.799.065 1.606.01 2.481.01 0 .996.036 2.133-.015 3.265-.026.61-.639.854-1.373.604-1.947-.666-3.752-1.621-5.311-2.963C.956 26.96-1.214 20.83.657 13.655 2.522 6.503 7.383 2.116 14.651.739 24.708-1.163 34.235 6.161 35.233 16.37c.788 8.048-3.949 15.579-11.523 18.319zm-9.481-8.839-.016.038.055.009c.014.001.026.026-.039-.047zm-4.55 3.181c.157.097.307.22.477.273.062.02.177-.121.38-.271-.282-.107-.448-.201-.623-.225-.068-.008-.156.145-.234.223zm1.433.246c.023.105.232.236.355.234.119-.002.235-.16.354-.25-.108-.099-.216-.195-.548-.494-.072.208-.191.376-.161.51zm1.758-.423c-.148.035-.273.172-.408.266.079.1.158.193.285.35.175-.16.294-.271.414-.379-.1-.087-.217-.255-.291-.237zm-4.358-.593c.082.155.209.289.381.508.115-.188.24-.332.218-.361a1.931 1.931 0 0 0-.403-.367c-.01-.008-.213.186-.196.22z"/></g></symbol><symbol id="info" viewBox="0 0 512 512"><g style="enable-background:new 0 0 512 512"><path d="M256 0C114.844 0 0 114.844 0 256s114.844 256 256 256 256-114.844 256-256S397.156 0 256 0zm42.667 416A10.66 10.66 0 0 1 288 426.667h-64A10.66 10.66 0 0 1 213.333 416V256h-10.667a10.66 10.66 0 0 1-10.667-10.667v-42.667a10.66 10.66 0 0 1 10.667-10.667H288a10.66 10.66 0 0 1 10.667 10.667V416zM256 170.667c-23.531 0-42.667-19.135-42.667-42.667S232.469 85.333 256 85.333s42.667 19.135 42.667 42.667-19.136 42.667-42.667 42.667z"/></g></symbol><symbol id="menu" viewBox="0 0 512 512"><g style="enable-background:new 0 0 512 512"><path d="M492 236H20c-11.046 0-20 8.954-20 20s8.954 20 20 20h472c11.046 0 20-8.954 20-20s-8.954-20-20-20zM492 76H20C8.954 76 0 84.954 0 96s8.954 20 20 20h472c11.046 0 20-8.954 20-20s-8.954-20-20-20zM492 396H20c-11.046 0-20 8.954-20 20s8.954 20 20 20h472c11.046 0 20-8.954 20-20s-8.954-20-20-20z"/></g></symbol><symbol id="warning" viewBox="0 0 486.463 486.463"><g style="enable-background:new 0 0 486.463 486.463"><path d="M243.225 333.382c-13.6 0-25 11.4-25 25s11.4 25 25 25c13.1 0 25-11.4 24.4-24.4.6-14.3-10.7-25.6-24.4-25.6z"/><path d="M474.625 421.982c15.7-27.1 15.8-59.4.2-86.4l-156.6-271.2c-15.5-27.3-43.5-43.5-74.9-43.5s-59.4 16.3-74.9 43.4l-156.8 271.5c-15.6 27.3-15.5 59.8.3 86.9 15.6 26.8 43.5 42.9 74.7 42.9h312.8c31.3 0 59.4-16.3 75.2-43.6zm-34-19.6c-8.7 15-24.1 23.9-41.3 23.9h-312.8c-17 0-32.3-8.7-40.8-23.4-8.6-14.9-8.7-32.7-.1-47.7l156.8-271.4c8.5-14.9 23.7-23.7 40.9-23.7 17.1 0 32.4 8.9 40.9 23.8l156.7 271.4c8.4 14.6 8.3 32.2-.3 47.1z"/><path d="M237.025 157.882c-11.9 3.4-19.3 14.2-19.3 27.3.6 7.9 1.1 15.9 1.7 23.8 1.7 30.1 3.4 59.6 5.1 89.7.6 10.2 8.5 17.6 18.7 17.6s18.2-7.9 18.7-18.2c0-6.2 0-11.9.6-18.2 1.1-19.3 2.3-38.6 3.4-57.9.6-12.5 1.7-25 2.3-37.5 0-4.5-.6-8.5-2.3-12.5-5.1-11.2-17-16.9-28.9-14.1z"/></g></symbol></svg>